<svg xmlns="http://www.w3.org/2000/svg" width="25" height="26.087" viewBox="0 0 25 26.087">
    <defs>
        <style>
            .cls-1{fill:#368f41}
        </style>
    </defs>
    <path id="calendar" d="M357.936 304a1.094 1.094 0 0 0-1.087 1.087v1.087h-3.261a1.06 1.06 0 0 0-1.087 1.087V329a1.055 1.055 0 0 0 1.087 1.087h22.826A1.051 1.051 0 0 0 377.5 329v-21.739a1.055 1.055 0 0 0-1.087-1.087h-3.26v-1.087a1.1 1.1 0 0 0-1.087-1.087h-1.087a1.1 1.1 0 0 0-1.087 1.087v1.087h-9.783v-1.087a1.094 1.094 0 0 0-1.088-1.087zm0 1.087h1.086v3.26h-1.086zm13.043 0h1.087v3.26h-1.087zm-17.391 2.174h3.261v1.086a1.093 1.093 0 0 0 1.087 1.087h1.086a1.093 1.093 0 0 0 1.087-1.087v-1.086h9.783v1.086a1.094 1.094 0 0 0 1.087 1.087h1.087a1.094 1.094 0 0 0 1.087-1.087v-1.086h3.26v3.8h-22.826zm0 4.891h22.826V329h-22.827zm3.261 2.173v12.5h16.3v-12.5zm1.087 1.087h2.717v2.717h-2.717zm3.8 0h2.717v2.717h-2.713zm3.8 0h2.717v2.717h-2.717zm3.8 0h2.717v2.717h-2.717zm-11.413 3.8h2.717v2.717h-2.717zm3.8 0h2.717v2.717h-2.7zm3.8 0h2.717v2.717h-2.717zm3.8 0h2.717v2.717h-2.717zm-11.413 3.8h2.717v2.717h-2.717zm3.8 0h2.717v2.717h-2.687zm3.8 0h2.717v2.717h-2.717zm3.8 0h2.717v2.717h-2.717z" class="cls-1" transform="translate(-352.5 -304)"/>
</svg>
