<svg xmlns="http://www.w3.org/2000/svg" width="25" height="28.409" viewBox="0 0 25 28.409">
  <path id="subir_archivo" data-name="subir archivo" d="M-42.362-297.545v27.272h15.926a5.641,5.641,0,0,0,3.392,1.137,5.69,5.69,0,0,0,5.682-5.682,5.7,5.7,0,0,0-3.409-5.2v-9.233l-8.293-8.292Zm13.068,1.367,7.155,7.155h-7.155Zm6.25,16.814a4.537,4.537,0,0,1,4.545,4.546,4.536,4.536,0,0,1-4.545,4.545,4.537,4.537,0,0,1-4.546-4.545A4.538,4.538,0,0,1-23.044-279.364Zm-.568,1.705v2.273h-2.273v1.136h2.273v2.273h1.136v-2.273H-20.2v-1.136h-2.273v-2.273Z" transform="translate(42.362 297.545)" fill="#368f41"/>
</svg>
