<svg xmlns="http://www.w3.org/2000/svg" xmlns:xlink="http://www.w3.org/1999/xlink" width="168.406" height="103.696" viewBox="0 0 168.406 103.696">
  <defs>
    <linearGradient id="linear-gradient" x1="0.51" y1="1.165" x2="0.51" y2="0.039" gradientUnits="objectBoundingBox">
      <stop offset="0.16" stop-color="#8cc757"/>
      <stop offset="0.581" stop-color="#5aba47"/>
      <stop offset="0.972" stop-color="#0c6a37"/>
    </linearGradient>
  </defs>
  <g id="Nuvo_Systems" data-name="Nuvo Systems" transform="translate(-475 -246.304)">
    <g id="Group_39" data-name="Group 39">
      <path id="Path_393" data-name="Path 393" d="M151,376.911h-4.5V356.319c0-2.13,1.373-3.219,3.645-3.219a3.91,3.91,0,0,1,3.645,2.177l8.237,14.58V353.289h4.544v20.592c0,2.083-1.373,3.219-3.645,3.219a3.889,3.889,0,0,1-3.6-2.178L151,360.343Z" transform="translate(328.5 -71.1)" fill="#85c25b"/>
      <path id="Path_394" data-name="Path 394" d="M209.338,353.6h5.207v14.959c0,5.633-3.456,9.041-9.846,9.041s-9.8-3.361-9.8-9.041V353.6h5.207v15.148c0,2.982,1.562,4.544,4.592,4.544s4.639-1.562,4.639-4.544Z" transform="translate(303.1 -71.6)" fill="#85c25b"/>
      <path id="Path_395" data-name="Path 395" d="M253.314,375.31a3.4,3.4,0,0,1-3.531,2.29,3.288,3.288,0,0,1-3.483-2.29L239,353.6h5.344l5.583,18.227L255.6,353.6h5.248Z" transform="translate(281 -71.6)" fill="#85c25b"/>
      <path id="Path_396" data-name="Path 396" d="M295.861,377.3c-6.817,0-11.361-4.355-11.361-11.976S289.186,353.3,296,353.3s11.361,4.355,11.361,12.024C307.364,373.04,302.725,377.3,295.861,377.3Zm0-20.166c-3.882,0-6.106,2.935-6.106,8.189s2.367,8.237,6.3,8.237c3.882,0,6.107-2.935,6.107-8.237C302.157,360.069,299.79,357.134,295.861,357.134Z" transform="translate(258.5 -71.3)" fill="#85c25b"/>
      <path id="Path_397" data-name="Path 397" d="M337,381.946V378h11v4H337Z" transform="translate(230.286 -87)" fill="#85c25b"/>
    </g>
    <g id="Group_40" data-name="Group 40">
      <path id="Path_406" data-name="Path 406" d="M372.814,314.982l12.077-12.029,12.029,12.029-11.933,11.933,11.741,11.741,24.01-24.01L384.89,278.8,348.9,314.79l23.962,24.01,11.885-11.885Z" transform="translate(222.668 -32.496)" fill="url(#linear-gradient)"/>
    </g>
    <g id="Group_41" data-name="Group 41">
      <path id="Path_398" data-name="Path 398" d="M144.6,447.2v-4h11v4Z" transform="translate(330.4 -108.2)"/>
      <path id="Path_399" data-name="Path 399" d="M183.987,428.732c3.791.932,5.883,2.894,5.883,6.966,0,5.2-3.574,7.7-7.932,7.7a20.285,20.285,0,0,1-7.321-1.325l-1.918-.736.784-4.66,1.918.736a18.4,18.4,0,0,0,6.493,1.521c1.743,0,3.268-.883,3.268-2.992,0-1.521-.741-2.453-2.571-2.894l-3.966-.981c-3.791-.932-5.883-2.992-5.883-7.015,0-5.249,3.53-7.653,7.932-7.653a20.129,20.129,0,0,1,7.278,1.374l1.918.687L189,424.17l-1.918-.785a17.732,17.732,0,0,0-6.363-1.521c-1.83,0-3.268.883-3.268,2.992,0,1.521.741,2.4,2.571,2.845Z" transform="translate(316.3 -93.4)"/>
      <path id="Path_400" data-name="Path 400" d="M229.029,433.079V443.9h-5.761V433.179L213.9,417.9h6.262l6.112,10.37,5.861-10.37h6.212Z" transform="translate(293.1 -93.9)"/>
      <path id="Path_402" data-name="Path 402" d="M320.7,422.2v21.6h-5.75V422.2H307.5v-4.4h20.7v4.4Z" transform="translate(243.515 -93.8)"/>
      <path id="Path_403" data-name="Path 403" d="M356.606,443.9c-2.054,0-3.306-1.152-3.306-3.056V420.956c0-1.9,1.2-3.056,3.306-3.056h15.029v4.308H359.061v6.412h11.021v4.108H359.061v6.913h12.624V443.9Z" transform="translate(220.39 -93.9)"/>
      <path id="Path_404" data-name="Path 404" d="M422.336,443.152h-5.023V424.489l-5.564,16.792c-.394,1.379-1.33,2.019-3,2.019a2.884,2.884,0,0,1-3.1-2.019l-5.417-16.841V443.1H395.4V420.845c0-2.364,1.674-3.545,4.186-3.545a4.38,4.38,0,0,1,4.678,3.348l4.629,14.674,4.826-14.674c.64-1.92,1.674-3.348,4.53-3.348,2.511,0,4.087,1.182,4.087,3.545Z" transform="translate(200.184 -93.3)"/>
      <path id="Path_422" data-name="Path 422" d="M183.987,428.732c3.791.932,5.883,2.894,5.883,6.966,0,5.2-3.574,7.7-7.932,7.7a20.285,20.285,0,0,1-7.321-1.325l-1.918-.736.784-4.66,1.918.736a18.4,18.4,0,0,0,6.493,1.521c1.743,0,3.268-.883,3.268-2.992,0-1.521-.741-2.453-2.571-2.894l-3.966-.981c-3.791-.932-5.883-2.992-5.883-7.015,0-5.249,3.53-7.653,7.932-7.653a20.129,20.129,0,0,1,7.278,1.374l1.918.687L189,424.17l-1.918-.785a17.732,17.732,0,0,0-6.363-1.521c-1.83,0-3.268.883-3.268,2.992,0,1.521.741,2.4,2.571,2.845Z" transform="translate(452.884 -93.4)"/>
      <path id="Path_421" data-name="Path 421" d="M183.987,428.732c3.791.932,5.883,2.894,5.883,6.966,0,5.2-3.574,7.7-7.932,7.7a20.285,20.285,0,0,1-7.321-1.325l-1.918-.736.784-4.66,1.918.736a18.4,18.4,0,0,0,6.493,1.521c1.743,0,3.268-.883,3.268-2.992,0-1.521-.741-2.453-2.571-2.894l-3.966-.981c-3.791-.932-5.883-2.992-5.883-7.015,0-5.249,3.53-7.653,7.932-7.653a20.129,20.129,0,0,1,7.278,1.374l1.918.687L189,424.17l-1.918-.785a17.732,17.732,0,0,0-6.363-1.521c-1.83,0-3.268.883-3.268,2.992,0,1.521.741,2.4,2.571,2.845Z" transform="translate(359.801 -93.4)"/>
    </g>
  </g>
</svg>
