<svg xmlns="http://www.w3.org/2000/svg" width="25" height="25" viewBox="0 0 25 25">
  <path id="call_us" data-name="call us" d="M170.877,97.769a21.041,21.041,0,0,0,9.153,9.153l3.055-3.056c.375-.375,1.417-.333,1.417-.333a29.021,29.021,0,0,0,4.958.792,1.393,1.393,0,0,1,1.389,1.389v4.847a1.393,1.393,0,0,1-1.389,1.389A23.609,23.609,0,0,1,165.85,88.339a1.393,1.393,0,0,1,1.389-1.389H172.1a1.393,1.393,0,0,1,1.389,1.389,15.773,15.773,0,0,0,.792,4.958,1.394,1.394,0,0,1-.347,1.417Z" transform="translate(-165.85 -86.95)" fill="#368f41"/>
</svg>
