<svg xmlns="http://www.w3.org/2000/svg" width="25" height="25" viewBox="0 0 25 25">
  <path id="tipousuario" d="M517.165,632.909a.568.568,0,0,0,.568-.568v-2.273a.568.568,0,0,0-.568-.568h-5.682v-5.682a.568.568,0,0,0-.568-.568h-2.273a.568.568,0,0,0-.568.568V629.5h-5.682v-5.682a.57.57,0,0,0-.568-.568h-2.273a.57.57,0,0,0-.568.568V629.5H493.3a.57.57,0,0,0-.568.568v2.273a.57.57,0,0,0,.568.568h5.682v5.682H493.3a.568.568,0,0,0-.568.568v2.273a.568.568,0,0,0,.568.568h5.682v5.682a.568.568,0,0,0,.568.568h2.273a.568.568,0,0,0,.568-.568V642h5.682v5.682a.566.566,0,0,0,.568.568h2.273a.566.566,0,0,0,.568-.568V642h5.682a.566.566,0,0,0,.568-.568v-2.273a.566.566,0,0,0-.568-.568h-5.682v-5.682Zm-9.091,5.682h-5.682v-5.682h5.682Z" transform="translate(-492.733 -623.25)" fill="#368f41"/>
</svg>
