<svg xmlns="http://www.w3.org/2000/svg" width="25" height="19.118" viewBox="0 0 25 19.118">
  <path id="users" d="M38.024-313.186a4.333,4.333,0,0,0-4.412,4.412,4.333,4.333,0,0,0,4.412,4.411,4.332,4.332,0,0,0,4.411-4.411A4.333,4.333,0,0,0,38.024-313.186Zm9.558,0a3.68,3.68,0,0,0-3.676,3.676,3.68,3.68,0,0,0,3.676,3.677,3.681,3.681,0,0,0,3.677-3.677A3.68,3.68,0,0,0,47.582-313.186Zm0,10.294a6.9,6.9,0,0,0-4.136,1.2,9.2,9.2,0,0,1,4.735,4.686v.139H54.2v-1.886A6.85,6.85,0,0,0,47.582-302.892Zm-9.558,1.471c-6.768,0-8.824,4.872-8.824,4.872v2.481H46.847v-2.483S44.791-301.421,38.024-301.421Z" transform="translate(-29.2 313.186)" fill="#368f41"/>
</svg>
